<svg width="93" height="23" viewBox="0 0 93 23" fill="none" xmlns="http://www.w3.org/2000/svg">
<path d="M91.4304 9.72829C91.6376 9.71017 91.8054 9.79186 91.9337 9.97336C92.0779 10.1535 92.1647 10.4109 92.194 10.7456C92.2442 11.3194 92.1519 11.8254 91.9172 12.2635C91.5309 12.9879 90.9878 13.5735 90.2881 14.0202C89.6043 14.4655 88.7603 14.732 87.7562 14.8199C86.226 14.9538 84.9988 14.6034 84.0745 13.7688C83.1489 12.9182 82.6177 11.7119 82.4811 10.1499C82.3849 9.05008 82.5267 8.00976 82.9067 7.02891C83.2852 6.03212 83.8566 5.21924 84.6207 4.59025C85.4007 3.95987 86.3087 3.59935 87.3448 3.50871C88.2692 3.42783 89.0348 3.64192 89.6415 4.15098C90.2468 4.64411 90.5905 5.36087 90.6728 6.30128C90.769 7.40108 90.4535 8.38432 89.7263 9.251C89.0136 10.1003 87.7291 10.8391 85.8728 11.4673C86.3195 12.167 86.9971 12.4771 87.9056 12.3977C88.5591 12.3405 89.0798 12.1423 89.4678 11.8032C89.8716 11.4627 90.3211 10.9095 90.8162 10.1434C90.9866 9.88758 91.1913 9.74921 91.4304 9.72829ZM87.1433 5.88732C86.5536 5.93892 86.0815 6.32553 85.727 7.04717C85.3885 7.76742 85.2618 8.61368 85.3468 9.58597L85.351 9.63379C86.2719 9.32836 86.9838 8.9288 87.4867 8.43509C87.9896 7.94138 88.2152 7.39966 88.1636 6.80991C88.1371 6.50707 88.0285 6.27565 87.8379 6.11566C87.6617 5.93833 87.4302 5.86222 87.1433 5.88732Z" fill="#E1D4C9"/>
<path d="M79.0495 15.5817C77.4875 15.7183 76.2298 15.3867 75.2765 14.5867C74.3377 13.7694 73.8048 12.6356 73.6779 11.1851C73.565 9.89403 73.721 8.74004 74.146 7.72313C74.571 6.70622 75.1669 5.89921 75.9338 5.3021C76.7006 4.70499 77.5304 4.36739 78.423 4.2893C79.2996 4.2126 80 4.41633 80.5242 4.90048C81.063 5.36731 81.3679 6.00716 81.439 6.82006C81.4976 7.4895 81.3957 8.06859 81.1333 8.55732C80.8868 9.04465 80.5245 9.30924 80.0463 9.35107C79.7435 9.37757 79.4901 9.32746 79.2863 9.20074C79.0984 9.07263 78.9933 8.88106 78.971 8.62603C78.9613 8.51446 78.966 8.38555 78.9854 8.23931C79.0047 8.09307 79.0195 7.98737 79.0299 7.92222C79.0887 7.67616 79.109 7.44953 79.0909 7.24232C79.0727 7.03511 79.003 6.8806 78.8817 6.77879C78.7763 6.67558 78.628 6.63235 78.4367 6.64908C78.0701 6.68115 77.742 6.8785 77.4525 7.24111C77.1616 7.58778 76.945 8.04841 76.8025 8.62302C76.66 9.19762 76.6181 9.81965 76.6767 10.4891C76.8384 12.338 77.7242 13.1921 79.3341 13.0512C79.9876 12.9941 80.6701 12.7175 81.3816 12.2216C82.1076 11.7084 82.7989 10.9814 83.4554 10.0406C83.6271 9.8007 83.8325 9.6703 84.0716 9.64938C84.2788 9.63125 84.4466 9.71294 84.5749 9.89445C84.7191 10.0746 84.8059 10.332 84.8352 10.6667C84.8882 11.2724 84.78 11.7797 84.5106 12.1888C83.8424 13.1788 83.0045 13.9748 81.9972 14.5769C81.0044 15.1617 80.0218 15.4966 79.0495 15.5817Z" fill="#E1D4C9"/>
<path d="M65.2999 16.7846C64.6943 16.8376 64.236 16.5565 63.9252 15.9412C63.6303 15.3246 63.4216 14.3149 63.2988 12.9123C63.1176 10.8402 63.2402 8.84593 63.6668 6.92946C63.7698 6.45468 63.9716 6.09973 64.2723 5.86464C64.5875 5.6122 65.04 5.46019 65.6297 5.40859C65.9485 5.3807 66.1751 5.40103 66.3096 5.46957C66.4441 5.53811 66.5211 5.68395 66.5406 5.9071C66.5629 6.16212 66.4936 6.74639 66.3326 7.6599C66.229 8.31141 66.1503 8.88043 66.0965 9.36697C66.0427 9.85351 66.0146 10.4502 66.0122 11.1571C66.4183 9.74035 66.9104 8.57302 67.4886 7.65513C68.0668 6.73724 68.6507 6.06781 69.2402 5.64682C69.8457 5.22444 70.4114 4.99025 70.9374 4.94423C71.9735 4.85359 72.5368 5.32629 72.6275 6.36233C72.6456 6.56954 72.6178 7.07789 72.5441 7.8874C72.4723 8.53612 72.4434 8.94018 72.4574 9.09957C72.5062 9.65744 72.7298 9.91894 73.1283 9.88408C73.5746 9.84503 74.1177 9.44417 74.7577 8.68149C74.9468 8.45615 75.1529 8.33372 75.376 8.3142C75.5833 8.29607 75.751 8.37776 75.8793 8.55927C76.0222 8.72344 76.1068 8.95695 76.1333 9.2598C76.1849 9.84954 76.066 10.3257 75.7765 10.6883C75.3706 11.1896 74.8795 11.6341 74.3031 12.0218C73.7412 12.3922 73.1256 12.6067 72.4562 12.6652C71.6114 12.7392 70.947 12.5805 70.4631 12.1891C69.9951 11.7964 69.729 11.2335 69.6648 10.5003C69.6439 10.2612 69.6469 10.02 69.6738 9.77675C69.6778 9.45518 69.6749 9.2386 69.6652 9.12703C69.6428 8.872 69.544 8.75216 69.3687 8.7675C69.1296 8.78842 68.8345 9.08727 68.4835 9.66406C68.1469 10.2235 67.8258 10.9583 67.5199 11.8684C67.2141 12.7786 66.9841 13.7302 66.8301 14.7234C66.7203 15.4879 66.5577 16.0161 66.3424 16.308C66.1415 16.5825 65.7941 16.7414 65.2999 16.7846Z" fill="#E1D4C9"/>
<path d="M54.9971 17.6858C54.2799 17.7486 53.6615 17.4734 53.1421 16.8603C52.6373 16.2299 52.3416 15.4206 52.2551 14.4324C52.1506 13.237 52.1347 12.1382 52.2077 11.136C52.2792 10.1179 52.4495 9.03494 52.7185 7.88712C52.836 7.39501 53.0292 7.03279 53.2979 6.80048C53.5667 6.56817 54.0119 6.42483 54.6336 6.37044C54.9842 6.33976 55.2282 6.37463 55.3655 6.47505C55.5187 6.57407 55.605 6.73516 55.6246 6.95831C55.6357 7.08582 55.5857 7.52385 55.4745 8.27238C55.3667 8.87608 55.2859 9.42119 55.2321 9.90773C55.0598 11.6092 54.998 12.7389 55.0468 13.2968C55.0761 13.6315 55.1368 13.8671 55.2291 14.0036C55.3199 14.1241 55.453 14.1767 55.6284 14.1614C55.8674 14.1405 56.1414 13.8756 56.4502 13.3667C56.775 12.8565 57.0941 12.0978 57.4075 11.0906C57.7369 10.0821 58.0307 8.8518 58.2892 7.39975C58.3749 6.91042 58.5361 6.551 58.773 6.32148C59.0259 6.09056 59.4153 5.95209 59.9413 5.90608C60.3079 5.874 60.5671 5.89951 60.7189 5.98259C60.8693 6.04974 60.955 6.20285 60.9759 6.44194C61.0108 6.84042 60.9071 7.94968 60.6648 9.76972C60.397 11.849 60.284 13.1277 60.3258 13.6059C60.3523 13.9087 60.437 14.1422 60.5798 14.3064C60.7213 14.4546 60.8956 14.5197 61.1028 14.5015C61.4216 14.4737 61.7795 14.2496 62.1763 13.8294C62.5878 13.3919 63.1217 12.7027 63.7782 11.7619C63.95 11.5221 64.1554 11.3917 64.3945 11.3707C64.6017 11.3526 64.7695 11.4343 64.8978 11.6158C65.042 11.7959 65.1288 12.0533 65.1581 12.3881C65.2138 13.0256 65.1057 13.533 64.8335 13.9101C64.222 14.8149 63.5415 15.5731 62.792 16.1847C62.0584 16.795 61.1895 17.1441 60.1853 17.2319C59.4202 17.2988 58.8286 17.0535 58.4104 16.4958C58.0082 15.9367 57.7603 15.1232 57.6669 14.0553C57.4907 15.1629 57.1575 16.0352 56.6672 16.6724C56.1754 17.2936 55.6188 17.6314 54.9971 17.6858Z" fill="#E1D4C9"/>
<path d="M53.3125 10.3166C53.5197 10.2985 53.6882 10.3881 53.8179 10.5856C53.9476 10.783 54.0264 11.0411 54.0543 11.3599C54.1212 12.125 53.9298 12.5995 53.4801 12.7834C52.5531 13.2017 51.5178 13.4851 50.3744 13.6333C50.1887 14.9987 49.6851 16.1268 48.8636 17.0178C48.0408 17.8929 47.0635 18.3799 45.9318 18.4789C44.9755 18.5626 44.1344 18.4033 43.4086 18.001C42.6987 17.5973 42.1349 17.0283 41.7173 16.2939C41.2998 15.5595 41.0519 14.746 40.9738 13.8534C40.8678 12.6421 41.0048 11.5459 41.3848 10.5651C41.7633 9.56831 42.3361 8.77136 43.1029 8.17425C43.8684 7.5612 44.7453 7.21145 45.7335 7.12499C46.9449 7.01901 47.9541 7.35633 48.7612 8.13696C49.5829 8.90025 50.1111 9.88997 50.346 11.1061C51.091 10.9928 51.9696 10.7553 52.982 10.3937C53.1067 10.3506 53.2169 10.3249 53.3125 10.3166ZM45.9014 15.9279C46.4114 15.8832 46.8316 15.6377 47.162 15.1912C47.5082 14.7433 47.711 14.1233 47.7702 13.3311C47.2468 13.0396 46.8259 12.6348 46.5075 12.1165C46.2051 11.5969 46.0273 11.0343 45.9743 10.4286C45.952 10.1735 45.9536 9.91643 45.9791 9.65722L45.8596 9.66767C45.222 9.72345 44.7153 10.081 44.3393 10.7403C43.9779 11.3822 43.846 12.261 43.9436 13.3768C44.0203 14.2534 44.2462 14.9082 44.6214 15.3412C45.0125 15.7727 45.4391 15.9683 45.9014 15.9279Z" fill="#E1D4C9"/>
<path d="M36.0613 19.8725C35.2324 19.945 34.5781 19.8095 34.0984 19.466C33.6346 19.1211 33.3817 18.7096 33.3399 18.2314C33.3036 17.817 33.4237 17.4451 33.7 17.1158C33.9764 16.7864 34.4094 16.596 34.9992 16.5444C35.2064 16.5262 35.4476 16.5292 35.7227 16.5533C36.0124 16.5601 36.2297 16.5652 36.3745 16.5686C36.3223 16.1556 36.1925 15.7734 35.9851 15.4222C35.7937 15.0695 35.5558 14.737 35.2715 14.4246C34.9857 14.0962 34.7202 13.8143 34.4747 13.5788C34.0629 14.5624 33.6371 15.3867 33.1974 16.0515C32.7736 16.715 32.2992 17.3507 31.7742 17.9588C31.5124 18.2708 31.2221 18.4408 30.9033 18.4687C30.6483 18.491 30.4334 18.4214 30.2587 18.2601C30.0825 18.0827 29.9826 17.8586 29.9589 17.5876C29.931 17.2688 30.0168 16.9642 30.2162 16.6737L30.4936 16.264C31.2754 15.1034 31.8588 14.153 32.2437 13.4126C32.4743 12.9267 32.7394 12.2851 33.039 11.488C33.3373 10.6749 33.6255 9.83857 33.9036 8.97905C34.1451 8.25124 34.744 7.84549 35.7004 7.76182C36.1467 7.72278 36.461 7.73543 36.6433 7.79979C36.8256 7.86415 36.9244 7.98399 36.9398 8.15932C36.9481 8.25495 36.9295 8.40916 36.8839 8.62195C36.8382 8.83474 36.7687 9.04962 36.6752 9.26659C36.4385 9.86549 36.3376 10.3642 36.3725 10.7627C36.3934 11.0018 36.4961 11.2578 36.6806 11.5307C36.881 11.8023 37.1754 12.1379 37.5637 12.5376C38.1323 13.1624 38.5651 13.7028 38.8619 14.1586C39.1733 14.5971 39.3534 15.0953 39.4023 15.6532C39.4162 15.8126 39.4198 16.0371 39.413 16.3268C40.1675 15.9557 41.0136 15.0706 41.9512 13.6715C42.123 13.4316 42.3284 13.3012 42.5675 13.2803C42.7747 13.2622 42.9425 13.3439 43.0708 13.5254C43.215 13.7055 43.3018 13.9629 43.3311 14.2976C43.3841 14.9033 43.2759 15.4107 43.0065 15.8197C42.296 16.8777 41.5902 17.622 40.889 18.0528C40.2025 18.4662 39.3266 18.7355 38.2615 18.8608C37.6713 19.4586 36.9379 19.7958 36.0613 19.8725Z" fill="#E1D4C9"/>
<path d="M32.3691 14.1727C32.5763 14.1545 32.744 14.2362 32.8723 14.4177C33.0166 14.5978 33.1033 14.8553 33.1326 15.19C33.1884 15.8276 33.0802 16.3349 32.808 16.7121C32.2811 17.4809 31.5021 18.2156 30.4713 18.9161C29.4563 19.6152 28.3352 20.0185 27.1079 20.1259C25.4343 20.2723 24.0955 19.9317 23.0915 19.104C22.0876 18.2764 21.5166 17.0736 21.3785 15.4956C21.2823 14.3958 21.4242 13.3555 21.8041 12.3746C22.1827 11.3778 22.754 10.5649 23.5181 9.93595C24.2982 9.30557 25.2062 8.94506 26.2422 8.85442C27.1667 8.77354 27.9323 8.98763 28.5389 9.49669C29.1442 9.98981 29.488 10.7066 29.5703 11.647C29.6665 12.7468 29.351 13.73 28.6238 14.5967C27.9111 15.446 26.6345 16.1841 24.7942 16.8109C25.2568 17.5092 26.046 17.8096 27.1617 17.712C27.879 17.6492 28.6703 17.3311 29.5356 16.7575C30.4154 16.1665 31.1545 15.4353 31.7528 14.5639C31.9246 14.324 32.13 14.1936 32.3691 14.1727ZM26.0408 11.233C25.451 11.2846 24.9789 11.6712 24.6245 12.3929C24.286 13.1131 24.1592 13.9594 24.2443 14.9317L24.2485 14.9795C25.1694 14.6741 25.8812 14.2745 26.3841 13.7808C26.887 13.2871 27.1127 12.7454 27.0611 12.1556C27.0346 11.8528 26.926 11.6214 26.7353 11.4614C26.5592 11.284 26.3277 11.2079 26.0408 11.233Z" fill="#E1D4C9"/>
<path d="M23.4426 14.9538C23.6498 14.9356 23.8176 15.0173 23.9459 15.1988C24.0901 15.3789 24.1769 15.6364 24.2062 15.9711C24.2605 16.5927 24.1524 17.1001 23.8816 17.4932C23.1974 18.4846 22.4871 19.2695 21.7507 19.8478C21.0129 20.4103 20.1101 20.7382 19.0421 20.8317C18.0061 20.9223 17.0971 20.7208 16.3151 20.227C15.549 19.7319 14.7799 18.8355 14.0079 17.5379C13.3871 16.5 12.9029 15.7393 12.5555 15.2558C12.2066 14.7563 11.871 14.4082 11.5486 14.2116C11.2422 14.0135 10.8717 13.9094 10.4372 13.8992C10.4027 14.2395 10.3115 15.3076 10.1634 17.1033C10.1056 17.9114 10.0684 18.4045 10.0519 18.5826C9.97758 19.5689 9.72434 20.3459 9.29218 20.9137C8.85863 21.4656 8.15571 21.7841 7.18343 21.8692C6.11551 21.9626 5.13994 21.7347 4.25672 21.1856C3.38804 20.6192 2.68175 19.7976 2.13784 18.7209C1.59254 17.6283 1.25713 16.3647 1.13163 14.9302C0.897356 12.2524 1.15739 9.90081 1.91173 7.87536C2.68201 5.84851 3.85933 4.25183 5.44369 3.0853C7.04259 1.90145 8.94184 1.2133 11.1414 1.02086C12.6716 0.886984 13.9749 1.00585 15.0514 1.37744C16.1279 1.74903 16.9487 2.31966 17.514 3.08932C18.0951 3.85759 18.4304 4.75178 18.5196 5.77189C18.5977 6.66448 18.4592 7.55995 18.1042 8.45832C17.7636 9.33935 17.1996 10.1436 16.412 10.871C15.6244 11.5984 14.6389 12.1745 13.4554 12.5992C14.2386 12.7395 14.8576 13.0226 15.3125 13.4486C15.7673 13.8746 16.241 14.5158 16.7335 15.3721C17.2635 16.2894 17.7632 16.9524 18.2326 17.361C18.7179 17.7683 19.2475 17.9468 19.8213 17.8966C20.3313 17.852 20.8028 17.6421 21.2358 17.2669C21.6673 16.8758 22.1975 16.2351 22.8263 15.345C22.9981 15.1051 23.2035 14.9747 23.4426 14.9538ZM7.1357 14.164C6.59377 14.2114 6.20804 14.1167 5.97852 13.8798C5.76494 13.6415 5.64421 13.3629 5.61632 13.0442C5.58285 12.6616 5.6759 12.3483 5.89546 12.1042C6.13096 11.8588 6.40811 11.7221 6.72689 11.6942L7.3246 11.6419C7.44297 10.0576 7.56422 8.68981 7.68836 7.53861C7.80493 6.48444 8.42905 5.90785 9.56073 5.80884C10.4693 5.72936 10.9591 6.09606 11.0302 6.90896C11.0455 7.08429 11.0494 7.22047 11.0419 7.3175L10.6718 11.3491C11.5283 11.226 12.2912 10.9504 12.9605 10.5225C13.6457 10.0931 14.1669 9.53357 14.5241 8.8438C14.8973 8.15265 15.0476 7.39265 14.9751 6.56382C14.8873 5.55966 14.4756 4.80065 13.74 4.28681C13.0044 3.77296 11.9751 3.57391 10.6522 3.68965C9.09015 3.82631 7.75355 4.33675 6.64238 5.22096C5.54576 6.08783 4.73764 7.31494 4.21801 8.90226C3.69698 10.4737 3.53199 12.3512 3.72303 14.5348C3.81228 15.5549 3.99258 16.4225 4.26394 17.1376C4.53529 17.8527 4.83843 18.3803 5.17334 18.7204C5.50826 19.0605 5.8112 19.2187 6.08217 19.195C6.28938 19.1768 6.44767 19.0586 6.55706 18.8402C6.68238 18.6205 6.76467 18.276 6.80392 17.8068L7.1357 14.164Z" fill="#E1D4C9"/>
</svg>
